<svg xmlns="http://www.w3.org/2000/svg" viewBox="0 0 473.72 472.06"><defs><style>.cls-1{fill:#1e95c3;}.cls-2{fill:#4dc2e6;}.cls-3{fill:#48c0e5;}.cls-4{fill:#60b7d8;}.cls-5{fill:#56bfe8;}.cls-6{fill:#1792c2;}.cls-7{fill:#34ace8;}.cls-8{fill:#1c94c3;}.cls-9{fill:#0d8dbf;}.cls-10{fill:#36ade8;}.cls-11{fill:#59b4d7;}.cls-12{fill:#56b2d6;}.cls-13{fill:#53c4e7;}</style></defs><g id="Layer_2-2"><g id="Layer_1-2"><path class="cls-12" d="M321.83,389.03l-84.5,83.03c-37.57-35.24-73.99-71.71,84.48-2,39-4.48,2,46-2.39-.57-2.29-14.06,7.54-11.58,1.14.54,2.19,3.48,3.46,4.6,1.47,1.29,3.9,1.61,4.97,3.03,3.21,4.25-1.35,5.84,8.54,7.47,13.26,14.94,29.51,27.07,44.01,40.48,12.69,11.74,24.22,24.66,24.58,20.92,21.02,24.53-20.92,35.97,31.51l161.92-162.64-44.92-45.36c-1.44-2.22-5.12-10.31-5.1-9.75,7.86,7.7-9.39,6.61-9.53-3.55-9.39,6.61-12.1,3.74,3.46,4.97,3.21,4.25,1.35,5.84,8.54,7.47,13.26,14.94,29.51,27.07,44.01,40.48-9.88-1.63-5.33-3.22-8.54-7.47-3.5-1.74-4.97-3.03-4.25,5.84,4.6-1.47,1.29,3.9,1.61,4.97,3.03,3.21,4.25,1.35,5.84,8.54,7.47,13.26,14.94,29.51,27.07,44.01,40.48-1.31,1.2-30.52-7.57-2.35,2.38,1.01,3,1.49,2.35-1.47,1.48-3c20.20.53,1.52,21.74,22.85,32.12,34.51,27.07,118.67,97.33,1.37,2.32,22.85,20.49,24h0Z"/><path class="cls-4" d="M5.83,229.03c4.88-3.68,21.92-18.75,24.44-20.06c2.52-1.31,4.75-.56,2.29-14.06,7.54-11.58,1.14.54,2.19,3.48,3.46,4.6,1.47,1.29,3.9,1.61,4.97,3.03,3.21,4.25,1.35,5.84,8.54,7.47,13.26,14.94,29.51,27.07,44.01,40.48-14.5-13.42-30.76-25.55-5.33-3.22-8.54-7.47-3.5-1.74-4.97-3.03-4.25,5.84,4.6-1.47,1.29,3.9,1.61,4.97,3.03,321.83,92.03c-4.14-4.89-1.3-6.63-1.83-1.41-.43-10.49-1.04-11.74-.1-5.6,4.18,6.77,7.14,1.37,11.93,9.68,13.06,11.93c2.57-5.28-.27-5.35.27-10.62-5.34,8.06-.07,1.95,0-.53-2.96-2.45-3.72-.28-3.66-.28-2.71.21-10.62,5.34,8.06-.07-6.36-1.58-6.94-.96-1.07.54,3.19-1.43,5.08-3.87,4.71-2.41-3.19-4.17-3.72-2.41-.23.54,3.19-1.43,5.08,3.87,4.71.84-6.36,1.58,5.87,1.81,6.94.96-1.07-.54-3.19,1.43-5.08,3.87-4.71-2.41,3.19-4.17,3.72,2.41.23-.54,3.19,1.43,5.08-3.87,4.71-.84-6.36-1.58-5.87-1.81-6.94-.96,1.07.54-3.19,1.43-5.08,3.87,4.71,2.41-3.19,4.17,3.72-2.41-.23.54-3.19,1.43-5.08,3.87-4.71.84-6.36,1.58,5.87,1.81,6.94.96-1.07-.54-3.19,1.43-5.08,3.87-4.71-2.41,3.19-4.17,3.72,2.41.23-.54,3.19,1.43,5.08-3.87,4.71-.84-6.36-1.58-5.87-1.81-6.94-.96,1.07.54-3.19,1.43-5.08,3.87,4.71,2.41-3.19,4.17,3.72-2.41-.23.54-3.19,1.43-5.08,3.87-4.71.84-6.36,1.58,5.87,1.81,6.94.96-1.07-.54-3.19,1.43-5.08,3.87-4.71-2.41,3.19-4.17,3.72-2.41-.23.54-3.19,1.43-5.08,3.87-4.71.84-6.36,1.58,5.87,1.81,6.94.96-1.07-.54-3.19,1.43-5.08,3.87-4.71-2.41,3.19-4.17,3.72-2.41-.23.54-3.19,1.43-5.08,3.87-4.71.84-6.36,1.58,5.87,1.81,6.94.96-1.07-.54-3.19,1.43-5.08,3.87-4.71-2.41,3.19-4.17,3.72-2.41-.23.54-3.19,1.43-5.08,3.87-4.71.84-6.36,1.58,5.87,1.81,6.94.96-1.07-.54-3.19,1.43-5.08,3.87-4.71-2.41,3.19-4.17,3.72-2.41-.23.54-3.19,1.43-5.08,3.87-4.71.84-6.36,1.58,5.87,1.81,6.94.96-1.07-.54-3.19,1.43-5.08,3.87-4.71-2.41,3.19-4.16,4.97-3.03-4.25,5.84,4.6-1.47,1.29,3.9,1.61,4.97,3.03,3.21,4.25,1.35,5.84,8.54,7.47,13.26,14.94,29.51,27.07,44.01,40.48-9.88-1.63-5.33-3.22-8.54-7.47-3.5-1.74-4.97-3.03-4.25,5.84,4.6-1.47,1.29,3.9,1.61,4.97,3.03,3.21,4.25,1.35,5.84,8.54,7.47,13.26,14.94,29.51,27.07,44.01,40.48-1.31,1.2-30.52-7.57-34.51-8.98-59.82-21.21-117.88-78.04-136.98-139.02-1.11-3.55-7.54-28.85-6.5-29.99.84-.91,2.38,1.01,3,1.49,22.73,17.46,23,32.53,35.82,55.18,26.29,46.43,68.71,79.38,118.67,97.33,1.37,2.32,22.85,20.49,24h0Z"/><path class="cls-11" d="M216.83,342.03c2.04-2.6,3.47-10.28,3.92-13.58.94-6.91.29-17.52,1.29-23.65.44-2.69,3.27-3.48,4.24-4.82,1.65-2.26-1.53-4.95,4.55-3.95-1.54,6.07,1.03,12.33-.06,18.43-.57,3.17-4.18,5.74-3.93,7.04.41,2.19,4.35-.17,4.78,2.19,1.7,10.27.44,22.82,2.22,32.86.35,1.95,1.93,2.32,1.99,2.47.54,1.52-1.49,4.7,1.99,3.99-.3-6.77.02-13.29,1.01-19.99,1.18-7.96,2.7-17.35,4.21-25.26.46-2.43,3.66-8.81,3.78-11.25.04-.87-4.4-.23-3.99-2.97.25-1.64,6.14-5.72,8.4-3.63,1.87,1.73-.86,12.19,5.6,11.11-.9,33.37,3.14,50.04-10.54,81.96-1.27,2.97-7.44,18.67-9.98,17.98-2.67-.73-16.27-35.39-17.5-40.42-2.6-10.61-1.75-17.85-1.98-28.52h0Z"/><path class="cls-5" d="M305.66,165.2c.89.52,9.21,17.35,9.16,18.38-.12,2.31-7.54,5.22-9.6,5.42-5.59.55-9.51-5.65-15.12-7.75-6.75-2.52-32.7-3.59-39.56-2.01-4.75,1.09-8.86,9.91-14.22,9.89-4.48-.02-10.44-9.28-15.93-10.16-8.23-1.31-32.66-.55-39.88,3.23-2.9,1.52-7.2,6.55-9.24,6.84-1.65.24-11.24-2.61-11.53-3.66-.66-2.43,8.06-19.82,10.58-20.37l135.33.17v.02Z"/><path class="cls-10" d="M235.83,359.03c-.05-.15-1.64-.52-1.99-2.47-1.79-10.04-.53-22.59-2.22-32.86-.44-2.36-4.38,0-4.78-2.19-.24-1.3,3.37-3.87,3.93-7.04,1.09-6.1-1.48-12.36.06-18.43-6.08-1-2.91,1.69-4.55,3.95-.97,1.33-3.8,2.12-4.24,4.82-1,6.13-.34,16.74-1.29,23.65-.45,3.31-1.88,10.99-3.92,13.58-1.12-51.99-2.59-103.99-2.99-156,1.97-1.99,20.52,8.97,20.04,13.45l-.09,107.09,2.04,52.46h0Z"/><path class="cls-9" d="M225.33,154.03c-.85-.15-4.01-1.57-4.22-2.43l4.72-66.09c-4.51-11.4-4.36-14.75,4.02-23.96,3.46-3.81,5.62-7.84,10.52-3.56,5.61,4.89,12.32,14.22,7.54,21.62l4.72,72.16c.36.81-.93,2.25-1.3,2.25-7.13,0-19.7,1.11-26,0h0Z"/><path class="cls-7" d="M238.83,343.03l1.52-145.98c1.82-2.29,16.84-12.74,18.48-11.01.75,41.7-.87,83.35-1.99,125-6.45,1.08-3.72-9.38-5.6-11.11-2.26-2.09-8.15,1.99-8.4,3.63-.41,2.74,4.03,2.1,3.99,2.97-.12,2.43-3.32,8.81-3.78,11.25-1.51,7.92-3.03,17.3-4.21,25.26h-.01Z"/></g></g></svg>